<svg viewBox="0 0 800 800" xmlns="http://www.w3.org/2000/svg"><path d="M286.0964837834714,129.18085244481898 L286.09648257536213,129.18059668119298 M-68.83423976405402,328.34652620880314 L-68.83424491484652,328.34626816953397 M286.0964837834714,129.18085244481898 L-68.83423976405402,328.34652620880314 M286.09648257536213,129.18059668119298 L-68.83424491484652,328.34626816953397 M513.90620855575,670.8194033188071 L513.9062098815966,670.8191415434818 M-68.83423976405402,328.34652620880314 L513.90620855575,670.8194033188071 M-68.83424491484652,328.34626816953397 L513.9062098815966,670.8191415434818 M868.8342396464366,459.8056563350124 L868.8342449148465,459.8053968351793 M513.90620855575,670.8194033188071 L868.8342396464366,459.8056563350124 M513.9062098815966,670.8191415434818 L868.8342449148465,459.8053968351793 M868.8342396464366,459.8056563350124 L286.0964837834714,129.18085244481898 M868.8342449148465,459.8053968351793 L286.09648257536213,129.18059668119298 M576.3659684991546,420.0295695598643 L576.3659704926763,420.02931049847973 M352.26051310999793,291.4905819043898 L352.2605126133606,291.4903242805243 M576.3659684991546,420.0295695598643 L352.26051310999793,291.4905819043898 M576.3659704926763,420.02931049847973 L352.2605126133606,291.4903242805243 M443.25265478856386,497.7460940016388 L443.2526553031089,497.7458340864048 M443.25265478856386,497.7460940016388 L576.3659684991546,420.0295695598643 M443.2526553031089,497.7458340864048 L576.3659704926763,420.02931049847973 M219.14714030813363,367.49908460538524 L219.147138332517,367.498826127667 M219.14714030813363,367.49908460538524 L443.25265478856386,497.7460940016388 M219.147138332517,367.498826127667 L443.2526553031089,497.7458340864048 M352.26051310999793,291.4905819043898 L219.14714030813363,367.49908460538524 M352.2605126133606,291.4903242805243 L219.147138332517,367.498826127667" stroke="black"  stroke-width="4"  fill="red"/></svg>