<svg viewBox="0 0 800 800" xmlns="http://www.w3.org/2000/svg"><path d="M288.16978883002434,209.23263036294418 L287.9345041311207,159.42152004311612 M-61.19565570584666,354.4562860566854 L287.9345041311207,159.42152004311612 M-60.192478004011264,404.71248314796037 L-61.19565570584666,354.4562860566854 M288.16978883002434,209.23263036294418 L-60.192478004011264,404.71248314796037 M860.1232212440516,533.7387903356635 L288.16978883002434,209.23263036294418 M530.3928314902439,296.37197343406814 L287.9345041311207,159.42152004311612 M530.3459546519354,304.48781981535745 L530.3928314902439,296.37197343406814 M544.401365101866,312.43263739312516 L530.3459546519354,304.48781981535745 M544.4532332653747,304.31386769250287 L544.401365101866,312.43263739312516 M563.3781687028232,315.00345099856185 L544.4532332653747,304.31386769250287 M563.3195713110083,323.1261491739194 L563.3781687028232,315.00345099856185 M577.42154696473,331.09728772259797 L563.3195713110083,323.1261491739194 M577.4851686856541,322.9716658447086 L577.42154696473,331.09728772259797 M596.4728775310307,333.69670615804085 L577.4851686856541,322.9716658447086 M596.4024820670772,341.8262569960882 L596.4728775310307,333.69670615804085 M610.5512568242641,349.82384872741545 L596.4024820670772,341.8262569960882 M610.626709868412,341.6913738476881 L610.5512568242641,349.82384872741545 M861.1493318804005,483.1968731346399 L610.626709868412,341.6913738476881 M860.1232212440516,533.7387903356635 L861.1493318804005,483.1968731346399 M362.8835713445823,324.00023410550534 L362.60025858478025,322.6508060086227 M362.60025858478025,322.6508060086227 L361.7586487564615,321.38009173284684 M361.7586487564615,321.38009173284684 L360.4078101886962,320.26186761079043 M360.4078101886962,320.26186761079043 L358.6263270856079,319.3610167526606 M358.6263270856079,319.3610167526606 L356.5177015980255,318.7297806027359 M356.5177015980255,318.7297806027359 L354.204368959822,318.40474219260136 M354.204368959822,318.40474219260136 L351.8205900440528,318.40474219260136 M351.8205900440528,318.40474219260136 L349.5046966960448,318.72977822813107 M349.5046966960448,318.72977822813107 L347.3911062723557,319.3610191275312 M347.3911062723557,319.3610191275312 L345.6025376298316,320.2618699860404 M345.6025376298316,320.2618699860404 L344.2429038206295,321.380089357126 M344.2429038206295,321.380089357126 L343.391303492924,322.65080600862257 M343.391303492924,322.65080600862257 L343.0973727807008,324.00023648232985 M232.1111625512809,387.0930138351446 L343.0973727807008,324.00023648232985 M232.1111625512809,387.0930138351446 L229.72790686372772,387.25872401153316 M229.72790686372772,387.25872401153316 L227.47812232946276,387.74625172977704 M227.47812232946276,387.74625172977704 L225.49242248567185,388.5273453343627 M225.49242248567185,388.5273453343627 L223.88612102472197,389.55671409314516 M223.88612102472197,389.55671409314516 L222.75259602343655,390.7746554579048 M222.75259602343655,390.7746554579048 L222.15784609461966,392.1104838174681 M222.15784609461966,392.1104838174681 L222.1366071462648,393.48661730579937 M222.1366071462648,393.48661730579937 L222.69032244788673,394.82308167769474 M222.69032244788673,394.82308167769474 L223.78698698636953,396.0421536253235 M223.78698698636953,396.0421536253235 L225.36299751422698,397.0728861271434 M225.36299751422698,397.0728861271434 L227.3267855946893,397.85526422401404 M227.3267855946893,397.85526422401404 L229.5641454101625,398.343705320771 M229.5641454101625,398.343705320771 L231.9448912772464,398.50974185104894 M291.642507817018,433.05267619330766 L231.9448912772464,398.50974185104894 M181.19233417578428,496.2836160341519 L291.642507817018,433.05267619330766 M-61.19565570584666,354.4562860566854 L181.19233417578428,496.2836160341519 M422.58398479064226,358.0907962773527 L530.3928314902439,296.37197343406814 M362.8835713445823,324.00023410550534 L422.58398479064226,358.0907962773527 M168.83400544029945,274.58939429551174 L165.94015627826826,273.290939219279 M165.94015627826826,273.290939219279 L162.57528715528187,272.4270138149795 M162.57528715528187,272.4270138149795 L158.93463114010373,272.0476163658215 M158.93463114010373,272.0476163658215 L155.22930557841642,272.1746939024099 M155.22930557841642,272.1746939024099 L151.6741862052346,272.800906783265 M151.6741862052346,272.800906783265 L148.47544499270185,273.8900012012364 M148.47544499270185,273.8900012012364 L145.81877459622228,275.3789442652851 M145.81877459622228,275.3789442652851 L143.85856488577713,277.1814818724025 M143.85856488577713,277.1814818724025 L142.70893126690044,279.19308825630276 M142.70893126690044,279.19308825630276 L142.43711761387658,281.2970331390796 M142.43711761387658,281.2970331390796 L143.0593852509959,283.37106408248815 M143.0593852509959,283.37106408248815 L144.5400373838065,285.2945526700844 M144.5400373838065,285.2945526700844 L146.79335755900036,286.95550487694226 M146.79335755900036,286.95550487694226 L149.68851140670785,288.2571209534764 M149.68851140670785,288.2571209534764 L153.05713042515197,289.1234832073723 M153.05713042515197,289.1234832073723 L156.70312248643927,289.5040351065953 M156.70312248643927,289.5040351065953 L160.41414783571582,289.3765651609773 M160.41414783571582,289.3765651609773 L163.97402494659647,288.74850287320555 M163.97402494659647,288.74850287320555 L167.17549196593646,287.65652577826665 M167.17549196593646,287.65652577826665 L169.8322317380995,286.1643271132408 M169.8322317380995,286.1643271132408 L171.78983850086433,284.35890680835104 M171.78983850086433,284.35890680835104 L172.9347932050885,282.34545103870397 M172.9347932050885,282.34545103870397 L173.20092379863144,280.2411137355481 M173.20092379863144,280.2411137355481 L172.57327091489563,278.1682372424168 M172.57327091489563,278.1682372424168 L171.08876502693283,276.247185504138 M171.08876502693283,276.247185504138 L168.83400544029945,274.58939429551174 M-60.192478004011264,404.71248314796037 L511.76359703942376,740.8474522674769 M511.76359703942376,740.8474522674769 L512.0218380631845,689.8603078373778 M261.42600397223384,543.2303610732985 L512.0218380631845,689.8603078373778 M261.4749589966509,551.4352261671486 L261.42600397223384,543.2303610732985 M247.3253883542881,543.1500707396658 L261.4749589966509,551.4352261671486 M247.27137491092896,534.948130391957 L247.3253883542881,543.1500707396658 M228.28315807563047,523.837645519754 L247.27137491092896,534.948130391957 M228.34394578665666,532.0356556181339 L228.28315807563047,523.837645519754 M214.24200873267813,523.7783916152964 L228.34394578665666,532.0356556181339 M214.17619674759496,515.5833064321296 L214.24200873267813,523.7783916152964 M195.25187024908615,504.51020540837 L214.17619674759496,515.5833064321296 M195.3244107940659,512.7013601492833 L195.25187024908615,504.51020540837 M181.26986510897774,504.47184574161736 L195.3244107940659,512.7013601492833 M181.19233417578428,496.2836160341519 L181.26986510897774,504.47184574161736 M511.76359703942376,740.8474522674769 L860.1232212440516,533.7387903356635 M169.33043699615655,324.66511049770804 L171.5803710680582,326.32667306001946 M171.5803710680582,326.32667306001946 L173.0617350876329,328.25209371810183 M173.0617350876329,328.25209371810183 L173.68811377120448,330.3296828115916 M173.68811377120448,330.3296828115916 L173.42265268496595,332.43880253653094 M173.42265268496595,332.43880253653094 L172.28027444063582,334.45683257936935 M172.28027444063582,334.45683257936935 L170.32700302038745,336.26635319559637 M170.32700302038745,336.26635319559637 L167.6761065359795,337.76193985703185 M167.6761065359795,337.76193985703185 L164.4816511231031,338.85639570937064 M164.4816511231031,338.85639570937064 L160.92954536832045,339.48588347158625 M160.92954536832045,339.48588347158625 L157.22659777520082,339.61364270925657 M157.22659777520082,339.61364270925657 L153.5885182504904,339.23222713178785 M153.5885182504904,339.23222713178785 L150.2271847400166,338.3638984236466 M150.2271847400166,338.3638984236466 L147.33826458183086,337.0593274143328 M147.33826458183086,337.0593274143328 L145.08976352545355,335.39460355515325 M145.08976352545355,335.39460355515325 L143.61223641507593,333.4667458175286 M143.61223641507593,333.4667458175286 L142.99121954134603,331.3880021646922 M142.99121954134603,331.3880021646922 L143.26233902847866,329.27927489720685 M143.26233902847866,329.27927489720685 L144.40937595620446,327.2630944148395 M144.40937595620446,327.2630944148395 L146.36523915467868,325.4564567687304 M146.36523915467868,325.4564567687304 L149.01606671476807,323.96412601584433 M149.01606671476807,323.96412601584433 L152.2078082896273,322.8725531128097 M152.2078082896273,322.8725531128097 L155.75517705080492,322.2449149322293 M155.75517705080492,322.2449149322293 L159.45244962376483,322.11754814066035 M159.45244962376483,322.11754814066035 L163.08521621904043,322.49780915900027 M163.08521621904043,322.49780915900027 L166.44281600428423,323.36370078732836 M166.44281600428423,323.36370078732836 L169.33043699615655,324.66511049770804 M653.3007026208444,603.7753511462868 L655.6793138442234,605.5201273159071 M655.6793138442234,605.5201273159071 L657.2819557516962,607.5419918952898 M657.2819557516962,607.5419918952898 L658.0151579319781,609.7236661360514 M658.0151579319781,609.7236661360514 L657.8358396597534,611.938470984609 M657.8358396597534,611.938470984609 L656.753890414021,614.0576409398493 M656.753890414021,614.0576409398493 L654.8317967711442,615.9578673046706 M654.8317967711442,615.9578673046706 L652.1809913212868,617.5284345402292 M652.1809913212868,617.5284345402292 L648.9555226241533,618.6777669758503 M648.9555226241533,618.6777669758503 L645.3431034870749,619.3388200782442 M645.3431034870749,619.3388200782442 L641.5540591889309,619.4729859598735 M641.5540591889309,619.4729859598735 L637.8091272008284,619.0724440522854 M637.8091272008284,619.0724440522854 L634.3264222207523,618.1605749387913 M634.3264222207523,618.1605749387913 L631.3086905582459,616.790595651898 M631.3086905582459,616.790595651898 L628.9314418616227,615.0424176324416 M628.9314418616227,615.0424176324416 L627.3327194220369,613.017930528543 M627.3327194220369,613.017930528543 L626.605095744247,610.8350138744277 M626.605095744247,610.8350138744277 L626.7903736032099,608.6206313466298 M626.7903736032099,608.6206313466298 L627.8772982112313,606.5034516906687 M627.8772982112313,606.5034516906687 L629.8022432608517,604.60632767016 M629.8022432608517,604.60632767016 L632.4531228833331,603.0392640954419 M632.4531228833331,603.0392640954419 L635.6758715255593,601.8930339818203 M635.6758715255593,601.8930339818203 L639.2833995668476,601.233971201576 M639.2833995668476,601.233971201576 L643.0665021550672,601.1002276285149 M643.0665021550672,601.1002276285149 L646.8058030353614,601.4995271229157 M646.8058030353614,601.4995271229157 L650.2844775128688,602.4087737115005 M650.2844775128688,602.4087737115005 L653.3007026208444,603.7753511462868 M362.9588087268919,374.18789910960305 L563.0075113491753,488.9287815758829 M563.0075113491753,488.9287815758829 L565.3962861192366,489.09636356667136 M565.3962861192366,489.09636356667136 L567.6512921320173,489.58940790531324 M567.6512921320173,489.58940790531324 L569.641625332302,490.3793362854421 M569.641625332302,490.3793362854421 L571.2516826431828,491.420348389193 M571.2516826431828,491.420348389193 L572.3878676012588,492.6520666368086 M572.3878676012588,492.6520666368086 L572.9840469545559,494.0030036425088 M572.9840469545559,494.0030036425088 L573.0053844099334,495.394704916556 M573.0053844099334,495.394704916556 L572.4504384232507,496.74629149135046 M572.4504384232507,496.74629149135046 L571.351268049647,497.97915576021677 M571.351268049647,497.97915576021677 L569.7716421623786,499.02155022924586 M569.7716421623786,499.02155022924586 L567.803339191605,499.81278064171283 M567.803339191605,499.81278064171283 L565.5608071046171,500.30674595940906 M565.5608071046171,500.30674595940906 L563.1745453764706,500.47466363239243 M563.1745453764706,500.47466363239243 L452.43255042754583,565.1299765929791 M452.43255042754583,565.1299765929791 L452.1475176479867,566.5287403426989 M452.1475176479867,566.5287403426989 L451.295489480292,567.8465290466279 M451.295489480292,567.8465290466279 L449.92581939500684,569.0066663314713 M449.92581939500684,569.0066663314713 L448.1180439361881,569.9416239458328 M448.1180439361881,569.9416239458328 L445.97724172157984,570.596943375428 M445.97724172157984,570.596943375428 L443.62794622395626,570.9344354984339 M443.62794622395626,570.9344354984339 L441.2068796613581,570.9344354984339 M441.2068796613581,570.9344354984339 L438.8549514017837,570.5969409099664 M438.8549514017837,570.5969409099664 L436.7090288833181,569.9416264110141 M436.7090288833181,569.9416264110141 L434.8939481573648,569.0066687962528 M434.8939481573648,569.0066687962528 L433.5152133541477,567.8465265823422 M433.5152133541477,567.8465265823422 L432.6528844556428,566.5287403426989 M432.6528844556428,566.5287403426989 L432.35692671090237,565.1299790561034 M432.35692671090237,565.1299790561034 L232.30818542729617,448.86443179332133 M232.30818542729617,448.86443179332133 L229.93266266180547,448.69802545763037 M229.93266266180547,448.69802545763037 L227.7002003309813,448.20849641687533 M227.7002003309813,448.20849641687533 L225.74069881534206,447.42437547390784 M225.74069881534206,447.42437547390784 L224.1681144908919,446.39134652303176 M224.1681144908919,446.39134652303176 L223.0738167897176,445.16955797879547 M223.0738167897176,445.16955797879547 L222.52127195655507,443.83011474959244 M222.52127195655507,443.83011474959244 L222.5424177661852,442.4509132617652 M222.5424177661852,442.4509132617652 L223.13581726903746,441.1121060583586 M223.13581726903746,441.1121060583586 L224.26681380793292,439.891448130334 M224.26681380793292,439.891448130334 L225.86955623122333,438.85978296271344 M225.86955623122333,438.85978296271344 L227.8508734025579,438.07694654991116 M227.8508734025579,438.07694654991116 L230.095705975458,437.5883309198977 M230.095705975458,437.5883309198977 L232.47372756432887,437.42225094242735 M232.47372756432887,437.42225094242735 L343.2157792189765,374.18790149178994 M343.2157792189765,374.18790149178994 L343.5090545879503,372.8354262180129 M343.5090545879503,372.8354262180129 L344.3587841122978,371.5618417279215 M344.3587841122978,371.5618417279215 L345.71544102467413,370.44109816667157 M345.71544102467413,370.44109816667157 L347.50010001493615,369.5382134379998 M347.50010001493615,369.5382134379998 L349.6090751202678,368.9055471851702 M349.6090751202678,368.9055471851702 L351.91991520605814,368.5797771521289 M351.91991520605814,368.5797771521289 L354.29849582317894,368.5797771521289 M354.29849582317894,368.5797771521289 L356.6067863463416,368.90554956513716 M356.6067863463416,368.90554956513716 L358.71081814721964,369.53821105776694 M358.71081814721964,369.53821105776694 L360.4884224710124,370.4410957860593 M360.4884224710124,370.4410957860593 L361.8363224678154,371.56184410900465 M361.8363224678154,371.56184410900465 L362.6761050407262,372.8354262180129 M362.6761050407262,372.8354262180129 L362.9588087268919,374.18789910960305 M530.3459546519354,304.48781981535745 L422.57505019572073,366.2292567011853 M422.58398479064226,358.0907962773527 L422.57505019572073,366.2292567011853 M544.401365101866,312.43263739312516 L436.6311264606151,374.261434102457 M422.57505019572073,366.2292567011853 L436.6311264606151,374.261434102457 M544.4532332653747,304.31386769250287 L436.6450530869016,366.12004926383855 M436.6311264606151,374.261434102457 L436.6450530869016,366.12004926383855 M455.57105739821185,376.92731322395025 L563.3781687028232,315.00345099856185 M436.6450530869016,366.12004926383855 L455.57105739821185,376.92731322395025 M563.3195713110083,323.1261491739194 L455.5504004101225,385.0726279094538 M455.57105739821185,376.92731322395025 L455.5504004101225,385.0726279094538 M577.42154696473,331.09728772259797 L469.65330005157114,393.1315619716828 M455.5504004101225,385.0726279094538 L469.65330005157114,393.1315619716828 M577.4851686856541,322.9716658447086 L469.6789823505326,384.9833226373086 M469.65330005157114,393.1315619716828 L469.6789823505326,384.9833226373086 M469.6789823505326,384.9833226373086 L488.66810908385304,395.82663121968955 M488.66810908385304,395.82663121968955 L596.4728775310307,333.69670615804085 M596.4024820670772,341.8262569960882 L488.63565153558443,403.97880068464326 M488.66810908385304,395.82663121968955 L488.63565153558443,403.97880068464326 M610.5512568242641,349.82384872741545 L502.78561102183346,412.06462653479304 M488.63565153558443,403.97880068464326 L502.78561102183346,412.06462653479304 M610.626709868412,341.6913738476881 L502.82312741130954,403.9095322329596 M502.78561102183346,412.06462653479304 L502.82312741130954,403.9095322329596 M861.1493318804005,483.1968731346399 L512.0218380631845,689.8603078373778 M371.88164318674905,479.4815848400989 L261.42600397223384,543.2303610732985 M432.4347232326366,514.5195174994894 L371.88164318674905,479.4815848400989 M432.4347232326366,514.5195174994894 L432.7313485713082,515.9152333442394 M432.7313485713082,515.9152333442394 L433.59560426984063,517.2301511334236 M433.59560426984063,517.2301511334236 L434.97741378122095,518.3877685970206 M434.97741378122095,518.3877685970206 L436.79653874518357,519.3206918947433 M436.79653874518357,519.3206918947433 L438.9472398970109,519.9745807356021 M438.9472398970109,519.9745807356021 L441.304402929955,520.311341158071 M441.304402929955,520.311341158071 L443.73085536282736,520.311341158071 M443.73085536282736,520.311341158071 L446.08537389791735,519.9745831957003 M446.08537389791735,519.9745831957003 L448.2309319407576,519.3206894349253 M448.2309319407576,519.3206894349253 L450.0427191031809,518.3877661376025 M450.0427191031809,518.3877661376025 L451.41542353009476,517.2301535923458 M451.41542353009476,517.2301535923458 L452.2693326415108,515.9152333442394 M452.2693326415108,515.9152333442394 L452.5549843660775,514.5195150417285 M563.5411373879881,450.00579444749485 L452.5549843660775,514.5195150417285 M563.5411373879881,450.00579444749485 L565.9326695913768,449.83824660231096 M565.9326695913768,449.83824660231096 L568.180143483061,449.34536927416934 M568.180143483061,449.34536927416934 L570.1527716723941,448.55588179199094 M570.1527716723941,448.55588179199094 L571.7358545453823,447.51578388787306 M571.7358545453823,447.51578388787306 L572.8374128798546,446.2856363598847 M572.8374128798546,446.2856363598847 L573.3935395340275,444.93702881494636 M573.3935395340275,444.93702881494636 L573.372107669469,443.54839572239933 M573.372107669469,443.54839572239933 L572.7745652178445,442.200437741416 M572.7745652178445,442.200437741416 L571.6358285064264,440.97143623507736 M571.6358285064264,440.97143623507736 L570.0221795636506,439.9327206967196 M570.0221795636506,439.9327206967196 L568.0274236889667,439.14453524733386 M568.0274236889667,439.14453524733386 L565.7674206703113,438.6525789039336 M565.7674206703113,438.6525789039336 L563.3733642965382,438.4853667356971 M502.82312741130954,403.9095322329596 L563.3733642965382,438.4853667356971 M653.8716719063234,553.0810263479898 L650.8486509668527,551.7174046778379 M650.8486509668527,551.7174046778379 L647.3621728580102,550.8101250932505 M647.3621728580102,550.8101250932505 L643.6145125147796,550.4116895175778 M643.6145125147796,550.4116895175778 L639.8229782810187,550.5451437181023 M639.8229782810187,550.5451437181023 L636.2074342173664,551.202780626347 M636.2074342173664,551.202780626347 L632.9775491040007,552.3465312874177 M632.9775491040007,552.3465312874177 L630.3208263429894,553.9102059077373 M630.3208263429894,553.9102059077373 L628.3916711088233,555.8032284454719 M628.3916711088233,555.8032284454719 L627.3024149846154,557.9158325059841 M627.3024149846154,557.9158325059841 L627.1168217575852,560.125431212371 M627.1168217575852,560.125431212371 L627.8461667711008,562.303633869923 M627.8461667711008,562.303633869923 L629.4485493569006,564.3237507447202 M629.4485493569006,564.3237507447202 L631.8311857958557,566.068156268856 M631.8311857958557,566.068156268856 L634.8557201846713,567.4351800198763 M634.8557201846713,567.4351800198763 L638.3462469343699,568.3450823057303 M638.3462469343699,568.3450823057303 L642.0995636118929,568.7447603781404 M642.0995636118929,568.7447603781404 L645.8970660912432,568.6108838406481 M645.8970660912432,568.6108838406481 L649.5175230163345,567.9512564764093 M649.5175230163345,567.9512564764093 L652.7501401942817,566.8044032847181 M652.7501401942817,566.8044032847181 L655.4067882848523,565.2372247679527 M655.4067882848523,565.2372247679527 L657.3330792210227,563.3410996772914 M657.3330792210227,563.3410996772914 L658.4173376517373,561.2265051836661 M658.4173376517373,561.2265051836661 L658.5969446363916,559.0164841281211 M658.5969446363916,559.0164841281211 L657.8619962469686,556.8395239674663 M657.8619962469686,556.8395239674663 L656.2556768002073,554.8220297935329 M656.2556768002073,554.8220297935329 L653.8716719063234,553.0810263479898 M343.2157792189765,374.18790149178994 L343.0973727807008,324.00023648232985 M362.9588087268919,374.18789910960305 L362.8835713445823,324.00023410550534 M232.47372756432887,437.42225094242735 L232.1111625512809,387.0930138351446 M232.30818542729617,448.86443179332133 L231.9448912772464,398.50974185104894 M291.6802168384465,441.218282108247 L291.642507817018,433.05267619330766 M305.73598123486687,449.3572066129159 L291.6802168384465,441.218282108247 M305.7032639111302,441.18867563036815 L305.73598123486687,449.3572066129159 M324.62905660928914,452.1397395495141 L305.7032639111302,441.18867563036815 M324.6550437980468,460.3122011303285 L324.62905660928914,452.1397395495141 M338.7579414245712,468.47841791101007 L324.6550437980468,460.3122011303285 M338.7369795438121,460.30303121641344 L338.7579414245712,468.47841791101007 M357.72631356835666,471.2908621623283 L338.7369795438121,460.30303121641344 M357.74049997913977,479.470179484677 L357.72631356835666,471.2908621623283 M371.890770423949,487.66382727378476 L357.74049997913977,479.470179484677 M371.88164318674905,479.4815848400989 L371.890770423949,487.66382727378476 M432.35692671090237,565.1299790561034 L432.4347232326366,514.5195174994894 M291.6802168384465,441.218282108247 L181.26986510897774,504.47184574161736 M563.0075113491753,488.9287815758829 L563.3733642965382,438.4853667356971 M169.33043699615655,324.66511049770804 L168.83400544029945,274.58939429551174 M371.890770423949,487.66382727378476 L261.4749589966509,551.4352261671486 M357.74049997913977,479.470179484677 L247.3253883542881,543.1500707396658 M247.27137491092896,534.948130391957 L357.72631356835666,471.2908621623283 M338.7369795438121,460.30303121641344 L228.28315807563047,523.837645519754 M338.7579414245712,468.47841791101007 L228.34394578665666,532.0356556181339 M324.6550437980468,460.3122011303285 L214.24200873267813,523.7783916152964 M214.17619674759496,515.5833064321296 L324.62905660928914,452.1397395495141 M305.7032639111302,441.18867563036815 L195.25187024908615,504.51020540837 M305.73598123486687,449.3572066129159 L195.3244107940659,512.7013601492833 M653.3007026208444,603.7753511462868 L653.8716719063234,553.0810263479898 M563.1745453764706,500.47466363239243 L563.5411373879881,450.00579444749485 M452.43255042754583,565.1299765929791 L452.5549843660775,514.5195150417285" stroke="black"  stroke-width="4"  fill="red"/>
<path d="M287.6982033275103,109.3952945718105 L287.4608797768753,59.15254773252309 M287.4608797768753,59.15254773252309 L-63.215265915587565,253.27986580471696 M-62.20324190326983,303.9792365454088 L-63.215265915587565,253.27986580471696 M287.6982033275103,109.3952945718105 L-62.20324190326983,303.9792365454088 M512.2812476517297,638.6424418101747 L512.5418338051621,587.19227464441 M-62.20324190326983,303.9792365454088 L512.2812476517297,638.6424418101747 M-63.215265915587565,253.27986580471696 L512.5418338051621,587.19227464441 M512.5418338051621,587.19227464441 L863.2152659155876,381.43760541986575 M862.1800032130366,432.43031511423237 L863.2152659155876,381.43760541986575 M512.2812476517297,638.6424418101747 L862.1800032130366,432.43031511423237 M862.1800032130366,432.43031511423237 L287.6982033275103,109.3952945718105 M863.2152659155876,381.43760541986575 L287.4608797768753,59.15254773252309 M362.8080042211791,273.59261281050885 L563.7408369624887,387.81862682123386 M563.7408369624887,387.81862682123386 L566.1401983470544,387.9854642463189 M566.1401983470544,387.9854642463189 L568.4052205668794,388.4763181175371 M568.4052205668794,388.4763181175371 L570.4044188140921,389.2627374420137 M570.4044188140921,389.2627374420137 L572.0216754471213,390.2991258483769 M572.0216754471213,390.2991258483769 L573.1629753965688,391.52537444721605 M573.1629753965688,391.52537444721605 L573.7618871868708,392.87031373666827 M573.7618871868708,392.87031373666827 L573.7834140885805,394.25583778391916 M573.7834140885805,394.25583778391916 L573.226101739999,395.6014266130313 M573.226101739999,395.6014266130313 L572.1221450494901,396.8288212001218 M572.1221450494901,396.8288212001218 L570.5355900280332,397.86659193195965 M570.5355900280332,397.86659193195965 L568.5586175702053,398.65431325128526 M568.5586175702053,398.65431325128526 L566.3061800457258,399.1460880857709 M566.3061800457258,399.1460880857709 L563.9093540340567,399.3132611726563 M563.9093540340567,399.3132611726563 L452.6779639726722,463.6834909311911 M452.6779639726722,463.6834909311911 L452.3916906107441,465.07612271467616 M452.3916906107441,465.07612271467616 L451.53589223291505,466.38813581282653 M451.53589223291505,466.38813581282653 L450.1601399902835,467.5431895534845 M450.1601399902835,467.5431895534845 L448.3443232797035,468.47405108069853 M448.3443232797035,468.47405108069853 L446.19398823131723,469.12649993057846 M446.19398823131723,469.12649993057846 L443.83422338293514,469.4625138225702 M443.83422338293514,469.4625138225702 L441.4023610637021,469.4625138225702 M441.4023610637021,469.4625138225702 L439.0399399029581,469.12649747591604 M439.0399399029581,469.12649747591604 L436.88443878775865,468.4740535350807 M436.88443878775865,468.4740535350807 L435.06125152340917,467.543192007467 M435.06125152340917,467.543192007467 L433.6763535595377,466.38813335934015 M433.6763535595377,466.38813335934015 L432.81016243134934,465.07612271467616 M432.81016243134934,465.07612271467616 L432.51286648075927,463.6834933835162 M432.51286648075927,463.6834933835162 L231.57999439011098,347.932903192667 M231.57999439011098,347.932903192667 L229.19400240260487,347.76724135365424 M229.19400240260487,347.76724135365424 L226.95172356766582,347.2799025739381 M226.95172356766582,347.2799025739381 L224.9836301275511,346.4992903456866 M224.9836301275511,346.4992903456866 L223.40417843580695,345.4708846235755 M223.40417843580695,345.4708846235755 L222.30513680254035,344.2545651452964 M222.30513680254035,344.2545651452964 L221.7502460705176,342.9211189578149 M221.7502460705176,342.9211189578149 L221.77157877431273,341.5480939633348 M221.77157877431273,341.5480939633348 L222.3676852826395,340.2152837558813 M222.3676852826395,340.2152837558813 L223.50375007394587,339.0000947936397 M223.50375007394587,339.0000947936397 L225.11362641259313,337.9730527339522 M225.11362641259313,337.9730527339522 L227.10372836008506,337.1937249220574 M227.10372836008506,337.1937249220574 L229.3584867512276,336.7072994615712 M229.3584867512276,336.7072994615712 L231.74699962908886,336.54196396244896 M231.74699962908886,336.54196396244896 L342.978447405332,273.5926151819011 M342.978447405332,273.5926151819011 L343.2730363948109,272.246269212165 M343.2730363948109,272.246269212165 L344.1265157813331,270.9784577870803 M344.1265157813331,270.9784577870803 L345.4891395802418,269.8627955070177 M345.4891395802418,269.8627955070177 L347.2816350422977,268.96400502393436 M347.2816350422977,268.96400502393436 L349.3998610291025,268.33420805060143 M349.3998610291025,268.33420805060143 L351.72082978834044,268.0099155759208 M351.72082978834044,268.0099155759208 L354.1098297738967,268.0099155759208 M354.1098297738967,268.0099155759208 L356.42822660284685,268.3342104197742 M356.42822660284685,268.3342104197742 L358.5414658795922,268.96400265449574 M358.5414658795922,268.96400265449574 L360.32684472613965,269.8627931371999 M360.32684472613965,269.8627931371999 L361.6806347055887,270.9784601573691 M361.6806347055887,270.9784601573691 L362.5240797582063,272.246269212165 M362.5240797582063,272.246269212165 L362.8080042211791,273.59261281050885 M654.4451944793817,502.16000425941644 L656.8346175540597,503.8971837503489 M656.8346175540597,503.8971837503489 L658.4446314435364,505.91024815246703 M658.4446314435364,505.91024815246703 L659.1813343464629,508.0824301744169 M659.1813343464629,508.0824301744169 L659.0014378578999,510.287602405707 M659.0014378578999,510.287602405707 L657.9148603853225,512.3975592146513 M657.9148603853225,512.3975592146513 L655.9843537938491,514.2895272368264 M655.9843537938491,514.2895272368264 L653.3218372547367,515.8532709199894 M653.3218372547367,515.8532709199894 L650.0820398417723,516.9976111212383 M650.0820398417723,516.9976111212383 L646.4535092806228,517.655793337608 M646.4535092806228,517.655793337608 L642.6475107736659,517.7893765916122 M642.6475107736659,517.7893765916122 L638.8857717769762,517.3905741150113 M638.8857717769762,517.3905741150113 L635.3873880459387,516.4826654309344 M635.3873880459387,516.4826654309344 L632.3560201940019,515.1186374409247 M632.3560201940019,515.1186374409247 L629.9679715411702,513.3780557419516 M629.9679715411702,513.3780557419516 L628.3619120217566,511.36236853917995 M628.3619120217566,511.36236853917995 L627.6308375348818,509.1889439730588 M627.6308375348818,509.1889439730588 L627.8167471006944,506.98419410699603 M627.8167471006944,506.98419410699603 L628.9083447486504,504.87622780689674 M628.9083447486504,504.87622780689674 L630.8417286169804,502.98736245569756 M630.8417286169804,502.98736245569756 L633.5043203288151,501.4271228023047 M633.5043203288151,501.4271228023047 L636.7413735878221,500.28588524973236 M636.7413735878221,500.28588524973236 L640.3649693762743,499.62969356509876 M640.3649693762743,499.62969356509876 L644.1649729238173,499.49653266413344 M644.1649729238173,499.49653266413344 L647.9210301898346,499.89409259671646 M647.9210301898346,499.89409259671646 L651.4153470190179,500.79937847972735 M651.4153470190179,500.79937847972735 L654.4451944793817,502.16000425941644 M168.3354077332147,224.29517551658464 L170.59501357322625,225.94914660088608 M170.59501357322625,225.94914660088608 L172.0826746757291,227.86577290354973 M172.0826746757291,227.86577290354973 L172.71160692822517,229.93387581359133 M172.71160692822517,229.93387581359133 L172.44480350495286,232.03336878630157 M172.44480350495286,232.03336878630157 L171.29726070646203,234.04219104744047 M171.29726070646203,234.04219104744047 L169.33529931998086,235.8434579257356 M169.33529931998086,235.8434579257356 L166.6726904461148,237.33222469383634 M166.6726904461148,237.33222469383634 L163.46418097413925,238.42169090527094 M163.46418097413925,238.42169090527094 L159.8964984284594,239.04830924088327 M159.8964984284594,239.04830924088327 L156.17736000372503,239.17548614425422 M156.17736000372503,239.17548614425422 L152.52342091272845,238.79580911919612 M152.52342091272845,238.79580911919612 L149.1474847368439,237.93143880806684 M149.1474847368439,237.93143880806684 L146.24607024216536,236.63281595795857 M146.24607024216536,236.63281595795857 L143.98791025240155,234.97568426856364 M143.98791025240155,234.97568426856364 L142.50411986218842,233.05662141966013 M142.50411986218842,233.05662141966013 L141.8805964470846,230.98736420292403 M141.8805964470846,230.98736420292403 L142.15310774996487,228.8882636017861 M142.15310774996487,228.8882636017861 L143.30534982643672,226.88129049638025 M143.30534982643672,226.88129049638025 L145.26992540240153,225.08290595733007 M145.26992540240153,225.08290595733007 L147.93246444526955,223.59739438530454 M147.93246444526955,223.59739438530454 L151.13823606230412,222.51081049231945 M151.13823606230412,222.51081049231945 L154.70113998963188,221.88604133361542 M154.70113998963188,221.88604133361542 L158.41455369685474,221.75925679047066 M158.41455369685474,221.75925679047066 L162.06313347386794,222.13777950904085 M162.06313347386794,222.13777950904085 L165.43530347879792,222.99971327364293 M165.43530347879792,222.99971327364293 L168.3354077332147,224.29517551658464 M168.3354077332147,224.29517551658464 L167.83462956939218,173.7810111449424 M167.83462956939218,173.7810111449424 L164.92824312422414,172.4885803519332 M164.92824312422414,172.4885803519332 L161.54874048597142,171.62866392044577 M161.54874048597142,171.62866392044577 L157.8922023789349,171.25102721583514 M157.8922023789349,171.25102721583514 L154.17066513707113,171.37751498622146 M154.17066513707113,171.37751498622146 L150.59994248849648,172.00082179903248 M150.59994248849648,172.00082179903248 L147.38710949547982,173.08486277695025 M147.38710949547982,173.08486277695025 L144.7186758237154,174.56689857498574 M144.7186758237154,174.56689857498574 L142.74971489833626,176.36107643716835 M142.74971489833626,176.36107643716835 L141.5948525172696,178.36335643695355 M141.5948525172696,178.36335643695355 L141.32164005458526,180.45755018256762 M141.32164005458526,180.45755018256762 L141.9464242924887,182.5219719879049 M141.9464242924887,182.5219719879049 L143.43336625985683,184.43655189028357 M143.43336625985683,184.43655189028357 L145.69638689444707,186.08981366231245 M145.69638689444707,186.08981366231245 L148.604089169986,187.38540457321133 M148.604089169986,187.38540457321133 L151.98737436087816,188.24775717403955 M151.98737436087816,188.24775717403955 L155.6492952022982,188.6265480064479 M155.6492952022982,188.6265480064479 L159.37658225551792,188.49966793657376 M159.37658225551792,188.49966793657376 L162.95210454086282,187.87451223311325 M162.95210454086282,187.87451223311325 L166.16768751700283,186.7875893829407 M166.16768751700283,186.7875893829407 L168.83619147907314,185.30229889275208 M168.83619147907314,185.30229889275208 L170.8025269001881,183.50523913752943 M170.8025269001881,183.50523913752943 L171.95266950671746,181.5011102682743 M171.95266950671746,181.5011102682743 L172.22014910670742,179.40652421183006 M172.22014910670742,179.40652421183006 L171.58993228527845,177.34325653449176 M171.58993228527845,177.34325653449176 L170.099102536317,175.43111280115852 M170.099102536317,175.43111280115852 L167.83462956939218,173.7810111449424 M654.4451944793817,502.16000425941644 L655.0212876165082,451.0107509627837 M655.0212876165082,451.0107509627837 L651.9845827361929,449.65316165101456 M651.9845827361929,449.65316165101456 L648.4823918589507,448.749896467613 M648.4823918589507,448.749896467613 L644.7178999563097,448.35322403441796 M644.7178999563097,448.35322403441796 L640.909389172113,448.48608766461024 M640.909389172113,448.48608766461024 L637.2777057158121,449.14081455624785 M637.2777057158121,449.14081455624785 L634.0334524239388,450.279504965591 M634.0334524239388,450.279504965591 L631.3649657764562,451.8362631216038 M631.3649657764562,451.8362631216038 L629.4273347020359,453.7209149553821 M629.4273347020359,453.7209149553821 L628.33338545786,455.82418063009095 M628.33338545786,455.82418063009095 L628.1471585789278,458.02401590460033 M628.1471585789278,458.02401590460033 L628.8799707348077,460.19259756234885 M628.8799707348077,460.19259756234885 L630.4897240916404,462.20379498035646 M630.4897240916404,462.20379498035646 L632.8832095980151,463.9405009458159 M632.8832095980151,463.9405009458159 L635.9214418599822,465.30149249625 M635.9214418599822,465.30149249625 L639.4277180239004,466.20738050257177 M639.4277180239004,466.20738050257177 L643.1979172250234,466.60529549013876 M643.1979172250234,466.60529549013876 L647.0124498622224,466.47200950338816 M647.0124498622224,466.47200950338816 L650.6490901493931,465.8152920634277 M650.6490901493931,465.8152920634277 L653.8960997650113,464.67349897955745 M653.8960997650113,464.67349897955745 L656.564510732975,463.11323676458414 M656.564510732975,463.11323676458414 L658.4992514632708,461.2254822339871 M658.4992514632708,461.2254822339871 L659.5881578981385,459.1202260338557 M659.5881578981385,459.1202260338557 L659.7683446840958,456.91996839060175 M659.7683446840958,456.91996839060175 L659.0298789037926,454.75262928737243 M659.0298789037926,454.75262928737243 L657.4161535507303,452.7440546918627 M657.4161535507303,452.7440546918627 L655.0212876165082,451.0107509627837 M362.8080042211791,273.59261281050885 L362.7321051695438,222.96357627746286 M563.7408369624887,387.81862682123386 L564.109940198483,336.92706564530613 M362.7321051695438,222.96357627746286 L564.109940198483,336.92706564530613 M564.2792062099726,348.3955638480821 L566.6813495192779,348.22877050489393 M566.6813495192779,348.22877050489393 L568.9387726505557,347.7381128296599 M568.9387726505557,347.7381128296599 L570.9201085537849,346.9521811644143 M570.9201085537849,346.9521811644143 L572.5101509870993,345.91676855296384 M572.5101509870993,345.91676855296384 L573.6165164972822,344.692163509742 M573.6165164972822,344.692163509742 L574.1750195995404,343.34963352412007 M574.1750195995404,343.34963352412007 L574.1533970271098,341.9672598406985 M574.1533970271098,341.9672598406985 L573.5531096146088,340.6253793509446 M573.5531096146088,340.6253793509446 L572.4092348642586,339.40192022817706 M572.4092348642586,339.40192022817706 L570.7883543739902,338.36788986042296 M570.7883543739902,338.36788986042296 L568.7846939233681,337.5832601130011 M568.7846939233681,337.5832601130011 L566.5146301578997,337.09352335191556 M566.5146301578997,337.09352335191556 L564.109940198483,336.92706564530613 M563.9093540340567,399.3132611726563 L564.2792062099726,348.3955638480821 M452.6779639726722,463.6834909311911 L452.8014929272595,412.6203830904518 M564.2792062099726,348.3955638480821 L452.8014929272595,412.6203830904518 M432.5913587935578,412.6203855372679 L432.88932839469106,414.0098868226182 M432.88932839469106,414.0098868226182 L433.7574636406426,415.3189511948206 M433.7574636406426,415.3189511948206 L435.1454638942961,416.47141658029557 M435.1454638942961,416.47141658029557 L436.9727316434742,417.4001885768232 M436.9727316434742,417.4001885768232 L439.1330541961198,418.0511681598733 M439.1330541961198,418.0511681598733 L441.5007569967532,418.38643040973557 M441.5007569967532,418.38643040973557 L443.93805338047696,418.38643040973557 M443.93805338047696,418.38643040973557 L446.3030879749303,418.0511706090268 M446.3030879749303,418.0511706090268 L448.4582213488694,417.40018612795 M448.4582213488694,417.40018612795 L450.2780855722669,416.4714141318221 M450.2780855722669,416.4714141318221 L451.65689919524294,415.318953642798 M451.65689919524294,415.318953642798 L452.5145952179012,414.0098868226182 M452.5145952179012,414.0098868226182 L452.8014929272595,412.6203830904518 M432.51286648075927,463.6834933835162 L432.5913587935578,412.6203855372679 M231.57999439011098,347.932903192667 L231.21348406553258,297.13243268617356 M432.5913587935578,412.6203855372679 L231.21348406553258,297.13243268617356 M231.38122814025644,285.76762191061107 L228.98743482629175,285.932577802345 M228.98743482629175,285.932577802345 L226.72768053625478,286.41788650039433 M226.72768053625478,286.41788650039433 L224.73315692345375,287.19542528085935 M224.73315692345375,287.19542528085935 L223.1196897604039,288.22011001607797 M223.1196897604039,288.22011001607797 L221.98107377467946,289.43251033999337 M221.98107377467946,289.43251033999337 L221.38360449092232,290.76226265207265 M221.38360449092232,290.76226265207265 L221.36217740949644,292.13213821015836 M221.36217740949644,292.13213821015836 L221.9182485656575,293.46252645078846 M221.9182485656575,293.46252645078846 L223.01967761844926,294.6760571898293 M223.01967761844926,294.6760571898293 L224.60258553341805,295.70210546574896 M224.60258553341805,295.70210546574896 L226.57500325272807,296.48092854792236 M226.57500325272807,296.48092854792236 L228.82222278525163,296.96715047838643 M228.82222278525163,296.96715047838643 L231.21348406553258,297.13243268617356 M231.74699962908886,336.54196396244896 L231.38122814025644,285.76762191061107 M342.978447405332,273.5926151819011 L342.8589996508145,222.96357864335224 M231.38122814025644,285.76762191061107 L342.8589996508145,222.96357864335224 M362.7321051695438,222.96357627746286 L362.447566356686,221.6203573177101 M362.447566356686,221.6203573177101 L361.6022780582799,220.35549128235962 M361.6022780582799,220.35549128235962 L360.2455237415042,219.24241462645963 M360.2455237415042,219.24241462645963 L358.45623207504354,218.34571131554594 M358.45623207504354,218.34571131554594 L356.33835877353704,217.71738177248693 M356.33835877353704,217.71738177248693 L354.0148755318545,217.39384016334154 M354.0148755318545,217.39384016334154 L351.62063155440825,217.39384016334154 M351.62063155440825,217.39384016334154 L349.2945650880016,217.71737940881695 M349.2945650880016,217.71737940881695 L347.17168315892764,218.34571367948175 M347.17168315892764,218.34571367948175 L345.37524359598865,219.24241699077476 M345.37524359598865,219.24241699077476 L344.0096166273464,220.35548891757375 M344.0096166273464,220.35548891757375 L343.15424987142177,221.6203573177101 M343.15424987142177,221.6203573177101 L342.8589996508145,222.96357864335224" stroke="black"  stroke-width="4"  fill="red"/>
<path d="M202.6591570676318,207.0589323165786 L202.23691536359058,156.92123230319734 M26.340714153556576,305.5557974217925 L25.528999678045807,255.19039718004709 M202.6591570676318,207.0589323165786 L210.6406500049325,212.08124777176818 M210.6406500049325,212.08124777176818 L217.71064148649955,217.53065383196497 M217.71064148649955,217.53065383196497 L223.80041943709946,223.35583704333027 M223.80041943709946,223.35583704333027 L228.85028785308106,229.5017642750007 M228.85028785308106,229.5017642750007 L232.8102993915103,235.9102097762641 M232.8102993915103,235.9102097762641 L235.64060127039457,242.52021868564353 M235.64060127039457,242.52021868564353 L237.31207485911267,249.26873791250287 M237.31207485911267,249.26873791250287 L237.8065505730898,256.09113061505946 M237.8065505730898,256.09113061505946 L237.11712426598407,262.9218352685736 M237.11712426598407,262.9218352685736 L235.2482888340907,269.69495696255956 M235.2482888340907,269.69495696255956 L232.21598660433477,276.34493434826555 M232.21598660433477,276.34493434826555 L228.0475240593488,282.80716352752654 M228.0475240593488,282.80716352752654 L222.78133374275515,289.0186216314053 M222.78133374275515,289.0186216314053 L216.46681920261074,294.9185789657023 M216.46681920261074,294.9185789657023 L209.16372872831892,300.4491093499944 M209.16372872831892,300.4491093499944 L200.941806808876,305.55579742179236 M200.941806808876,305.55579742179236 L191.88001884091892,310.18823090434273 M191.88001884091892,310.18823090434273 L182.0658751427677,314.3005781134097 M182.0658751427677,314.3005781134097 L171.59450265529378,317.85203351015866 M171.59450265529378,317.85203351015866 L160.5678388677854,320.8073309443413 M160.5678388677854,320.8073309443413 L149.09342175934165,323.1370184619806 M149.09342175934165,323.1370184619806 L137.2834926751059,324.81789721791404 M137.2834926751059,324.81789721791404 L125.25371678490842,325.8331894731928 M125.25371678490842,325.8331894731928 L113.12202804333162,326.17275141313127 M113.12202804333162,326.17275141313127 L101.00744696177924,325.8331918507896 M101.00744696177924,325.8331918507896 L89.0287982183745,324.817901972252 M89.0287982183745,324.817901972252 L77.30354229248974,323.1370279678242 M77.30354229248974,323.1370279678242 L65.94647288851496,320.80732263016256 M65.94647288851496,320.80732263016256 L55.06865913009989,317.85204063286426 M55.06865913009989,317.85204063286426 L44.77618235755506,314.3005721815593 M44.77618235755506,314.3005721815593 L35.16916740721382,310.1882300152141 M35.16916740721382,310.1882300152141 L26.340714153556576,305.5557974217925 M202.23691536359058,156.92123230319734 L210.2355342967967,161.93184646215397 M210.2355342967967,161.93184646215397 L217.32067399830385,167.3685672200025 M217.32067399830385,167.3685672200025 L223.42347376281282,173.1802031069629 M223.42347376281282,173.1802031069629 L228.48410767696652,179.31185133067146 M228.48410767696652,179.31185133067146 L232.45251888090803,185.70542349491856 M232.45251888090803,185.70542349491856 L235.28876634094675,192.30010793128628 M235.28876634094675,192.30010793128628 L236.96366597817945,199.03299903222006 M236.96366597817945,199.03299903222006 L237.4590062086944,205.8396104714904 M237.4590062086944,205.8396104714904 L236.76786521658497,212.65453270335794 M236.76786521658497,212.65453270335794 L234.89474305039022,219.41202287337023 M234.89474305039022,219.41202287337023 L231.85561433053246,226.04667023111563 M231.85561433053246,226.04667023111563 L227.6778429884477,232.494018610492 M227.6778429884477,232.494018610492 L222.3999438368868,238.69118862581706 M222.3999438368868,238.69118862581706 L216.07142733291212,244.5775882548301 M216.07142733291212,244.5775882548301 L208.75217208045154,250.09542210016548 M208.75217208045154,250.09542210016548 L200.5120756159585,255.190397180047 M200.5120756159585,255.190397180047 L191.43027747565125,259.81221418924696 M191.43027747565125,259.81221418924696 L181.59448173623485,263.9151438107316 M181.59448173623485,263.9151438107316 L171.10002664755936,267.45847137816327 M171.10002664755936,267.45847137816327 L160.04907670750077,270.40700907053855 M160.04907670750077,270.40700907053855 L148.54940983287395,272.73137020850015 M148.54940983287395,272.73137020850015 L136.71351810246324,274.4084072665578 M136.71351810246324,274.4084072665578 L124.65732522230297,275.4213795718729 M124.65732522230297,275.4213795718729 L112.4990287359937,275.7601656995199 M112.4990287359937,275.7601656995199 L100.35791497340085,275.4213819440372 M100.35791497340085,275.4213819440372 L88.35307361318962,274.40841201003116 M88.35307361318962,274.40841201003116 L76.6022265237068,272.73137969261484 M76.6022265237068,272.73137969261484 L65.22042211663967,270.4070007753723 M65.22042211663967,270.4070007753723 L54.318975024472024,267.4584784845729 M54.318975024472024,267.4584784845729 L44.00419997595253,263.91513789246073 M44.00419997595253,263.91513789246073 L34.37644082450265,259.8122133021553 M34.37644082450265,259.8122133021553 L25.528999678045807,255.19039718004709 M287.9345041311207,159.42152004311612 L287.6982033275103,109.3952945718105 M287.9345041311207,159.42152004311612 L202.6591570676318,207.0589323165786 M287.6982033275103,109.3952945718105 L202.23691536359058,156.92123230319734 M-61.19565570584666,354.4562860566854 L-62.20324190326983,303.9792365454088 M26.340714153556576,305.5557974217925 L-61.19565570584666,354.4562860566854 M25.528999678045807,255.19039718004709 L-62.20324190326983,303.9792365454088 M422.58398479064226,358.0907962773527 L530.3928314902439,296.37197343406814 M362.8835713445823,324.00023410550534 L422.58398479064226,358.0907962773527 M362.8835713445823,324.00023410550534 L362.60025858478025,322.6508060086227 M362.60025858478025,322.6508060086227 L361.7586487564615,321.38009173284684 M361.7586487564615,321.38009173284684 L360.4078101886962,320.26186761079043 M360.4078101886962,320.26186761079043 L358.6263270856079,319.3610167526606 M358.6263270856079,319.3610167526606 L356.5177015980255,318.7297806027359 M356.5177015980255,318.7297806027359 L354.204368959822,318.40474219260136 M354.204368959822,318.40474219260136 L351.8205900440528,318.40474219260136 M351.8205900440528,318.40474219260136 L349.5046966960448,318.72977822813107 M349.5046966960448,318.72977822813107 L347.3911062723557,319.3610191275312 M347.3911062723557,319.3610191275312 L345.6025376298316,320.2618699860404 M345.6025376298316,320.2618699860404 L344.2429038206295,321.380089357126 M344.2429038206295,321.380089357126 L343.391303492924,322.65080600862257 M343.391303492924,322.65080600862257 L343.0973727807008,324.00023648232985 M232.1111625512809,387.0930138351446 L343.0973727807008,324.00023648232985 M232.1111625512809,387.0930138351446 L229.72790686372772,387.25872401153316 M229.72790686372772,387.25872401153316 L227.47812232946276,387.74625172977704 M227.47812232946276,387.74625172977704 L225.49242248567185,388.5273453343627 M225.49242248567185,388.5273453343627 L223.88612102472197,389.55671409314516 M223.88612102472197,389.55671409314516 L222.75259602343655,390.7746554579048 M222.75259602343655,390.7746554579048 L222.15784609461966,392.1104838174681 M222.15784609461966,392.1104838174681 L222.1366071462648,393.48661730579937 M222.1366071462648,393.48661730579937 L222.69032244788673,394.82308167769474 M222.69032244788673,394.82308167769474 L223.78698698636953,396.0421536253235 M223.78698698636953,396.0421536253235 L225.36299751422698,397.0728861271434 M225.36299751422698,397.0728861271434 L227.3267855946893,397.85526422401404 M227.3267855946893,397.85526422401404 L229.5641454101625,398.343705320771 M229.5641454101625,398.343705320771 L231.9448912772464,398.50974185104894 M291.642507817018,433.05267619330766 L231.9448912772464,398.50974185104894 M181.19233417578428,496.2836160341519 L291.642507817018,433.05267619330766 M-61.19565570584666,354.4562860566854 L181.19233417578428,496.2836160341519 M530.3928314902439,296.37197343406814 L287.9345041311207,159.42152004311612 M861.1493318804005,483.1968731346399 L610.626709868412,341.6913738476881 M610.7022163874676,333.55313533912897 L610.626709868412,341.6913738476881 M596.543322850221,325.5613978370468 L610.7022163874676,333.55313533912897 M596.4728775310307,333.69670615804085 L596.543322850221,325.5613978370468 M596.4728775310307,333.69670615804085 L577.4851686856541,322.9716658447086 M577.5488354217706,314.84029472856946 L577.4851686856541,322.9716658447086 M563.4368075256298,306.8750097102635 L577.5488354217706,314.84029472856946 M563.3781687028232,315.00345099856185 L563.4368075256298,306.8750097102635 M563.3781687028232,315.00345099856185 L544.4532332653747,304.31386769250287 M544.5051380672568,296.189363096035 L544.4532332653747,304.31386769250287 M530.4397414178444,288.2503982617371 L544.5051380672568,296.189363096035 M530.3928314902439,296.37197343406814 L530.4397414178444,288.2503982617371 M862.1800032130366,432.43031511423237 L287.6982033275103,109.3952945718105 M861.1493318804005,483.1968731346399 L862.1800032130366,432.43031511423237 M181.1147475438172,488.08950384425583 L181.19233417578428,496.2836160341519 M195.1792775530597,496.3131618601166 L181.1147475438172,488.08950384425583 M195.25187024908615,504.51020540837 L195.1792775530597,496.3131618601166 M195.25187024908615,504.51020540837 L214.17619674759496,515.5833064321296 M214.1103374031038,507.3823239282586 L214.17619674759496,515.5833064321296 M228.22232658929897,515.6337317545087 L214.1103374031038,507.3823239282586 M228.28315807563047,523.837645519754 L228.22232658929897,515.6337317545087 M228.28315807563047,523.837645519754 L247.27137491092896,534.948130391957 M247.217322533032,526.7402778354135 L247.27137491092896,534.948130391957 M261.37701363412856,535.0195774031291 L247.217322533032,526.7402778354135 M261.42600397223384,543.2303610732985 L261.37701363412856,535.0195774031291 M261.42600397223384,543.2303610732985 L512.0218380631845,689.8603078373778 M512.0218380631845,689.8603078373778 L512.2812476517297,638.6424418101747 M-62.20324190326983,303.9792365454088 L512.2812476517297,638.6424418101747 M422.59292572685285,349.9465596173787 L422.58398479064226,358.0907962773527 M530.4397414178444,288.2503982617371 L422.59292572685285,349.9465596173787 M436.6589896045579,357.9728820163391 L422.59292572685285,349.9465596173787 M436.6450530869016,366.12004926383855 L436.6589896045579,357.9728820163391 M436.6450530869016,366.12004926383855 L455.57105739821185,376.92731322395025 M455.59172907189475,368.7762078210248 L455.57105739821185,376.92731322395025 M469.7046829206803,376.8292863920346 L455.59172907189475,368.7762078210248 M469.6789823505326,384.9833226373086 L469.7046829206803,376.8292863920346 M469.6789823505326,384.9833226373086 L488.66810908385304,395.82663121968955 M488.70058974549,387.6686565073801 L488.66810908385304,395.82663121968955 M502.86067053561555,395.74862646948276 L488.70058974549,387.6686565073801 M502.82312741130954,403.9095322329596 L502.86067053561555,395.74862646948276 M502.82312741130954,403.9095322329596 L563.3733642965382,438.4853667356971 M563.3733642965382,438.4853667356971 L563.7408369624887,387.81862682123386 M362.8080042211791,273.59261281050885 L563.7408369624887,387.81862682123386 M362.8835713445823,324.00023410550534 L362.8080042211791,273.59261281050885 M343.0973727807008,324.00023648232985 L342.978447405332,273.5926151819011 M342.978447405332,273.5926151819011 L343.2730363948109,272.246269212165 M343.2730363948109,272.246269212165 L344.1265157813331,270.9784577870803 M344.1265157813331,270.9784577870803 L345.4891395802418,269.8627955070177 M345.4891395802418,269.8627955070177 L347.2816350422977,268.96400502393436 M347.2816350422977,268.96400502393436 L349.3998610291025,268.33420805060143 M349.3998610291025,268.33420805060143 L351.72082978834044,268.0099155759208 M351.72082978834044,268.0099155759208 L354.1098297738967,268.0099155759208 M354.1098297738967,268.0099155759208 L356.42822660284685,268.3342104197742 M356.42822660284685,268.3342104197742 L358.5414658795922,268.96400265449574 M358.5414658795922,268.96400265449574 L360.32684472613965,269.8627931371999 M360.32684472613965,269.8627931371999 L361.6806347055887,270.9784601573691 M361.6806347055887,270.9784601573691 L362.5240797582063,272.246269212165 M362.5240797582063,272.246269212165 L362.8080042211791,273.59261281050885 M232.1111625512809,387.0930138351446 L231.74699962908886,336.54196396244896 M231.74699962908886,336.54196396244896 L342.978447405332,273.5926151819011 M231.9448912772464,398.50974185104894 L231.57999439011098,347.932903192667 M231.57999439011098,347.932903192667 L229.19400240260487,347.76724135365424 M229.19400240260487,347.76724135365424 L226.95172356766582,347.2799025739381 M226.95172356766582,347.2799025739381 L224.9836301275511,346.4992903456866 M224.9836301275511,346.4992903456866 L223.40417843580695,345.4708846235755 M223.40417843580695,345.4708846235755 L222.30513680254035,344.2545651452964 M222.30513680254035,344.2545651452964 L221.7502460705176,342.9211189578149 M221.7502460705176,342.9211189578149 L221.77157877431273,341.5480939633348 M221.77157877431273,341.5480939633348 L222.3676852826395,340.2152837558813 M222.3676852826395,340.2152837558813 L223.50375007394587,339.0000947936397 M223.50375007394587,339.0000947936397 L225.11362641259313,337.9730527339522 M225.11362641259313,337.9730527339522 L227.10372836008506,337.1937249220574 M227.10372836008506,337.1937249220574 L229.3584867512276,336.7072994615712 M229.3584867512276,336.7072994615712 L231.74699962908886,336.54196396244896 M432.4347232326366,514.5195174994894 L371.88164318674905,479.4815848400989 M371.8725094020889,471.2934728420806 L371.88164318674905,479.4815848400989 M357.71211698817797,463.1056815730345 L371.8725094020889,471.2934728420806 M357.72631356835666,471.2908621623283 L357.71211698817797,463.1056815730345 M357.72631356835666,471.2908621623283 L338.7369795438121,460.30303121641344 M338.7160026511615,452.12178970280434 L338.7369795438121,460.30303121641344 M324.6030508230524,443.9614294259846 L338.7160026511615,452.12178970280434 M324.62905660928914,452.1397395495141 L324.6030508230524,443.9614294259846 M324.62905660928914,452.1397395495141 L305.7032639111302,441.18867563036815 M305.6705231960154,433.0143045247464 L305.7032639111302,441.18867563036815 M291.604771854607,424.8812364105734 L305.6705231960154,433.0143045247464 M291.642507817018,433.05267619330766 L291.604771854607,424.8812364105734 M432.51286648075927,463.6834933835162 L231.57999439011098,347.932903192667 M432.4347232326366,514.5195174994894 L432.51286648075927,463.6834933835162 M291.604771854607,424.8812364105734 L181.1147475438172,488.08950384425583 M599.5910485115636,638.0243621557588 L600.0465471796375,586.9181393423848 M512.0218380631845,689.8603078373778 L599.5910485115636,638.0243621557588 M512.2812476517297,638.6424418101747 L600.0465471796375,586.9181393423848 M775.907553157548,533.6551128407868 L776.7525074041114,482.77683766989946 M599.5910485115636,638.0243621557588 L591.1238971317337,632.6118904636064 M591.1238971317337,632.6118904636064 L583.6026949131423,626.7503547952815 M583.6026949131423,626.7503547952815 L577.099211166706,620.4974802720758 M577.099211166706,620.4974802720758 L571.6750355492752,613.9146704627988 M571.6750355492752,613.9146704627988 L567.3809023270468,607.0663297472402 M567.3809023270468,607.0663297472402 L564.2564536054962,600.0192688033583 M564.2564536054962,600.0192688033583 L562.3297248451073,592.8419501458568 M562.3297248451073,592.8419501458568 L561.6170976438968,585.6038801180873 M561.6170976438968,585.6038801180873 L562.1231601862949,578.3748712857919 M562.1231601862949,578.3748712857919 L563.840769254253,571.2244028755222 M563.840769254253,571.2244028755222 L566.751191838426,564.22092738538 M566.751191838426,564.22092738538 L570.8243813576861,557.4312486224239 M570.8243813576861,557.4312486224239 L576.0193942348458,550.9199241250226 M576.0193942348458,550.9199241250226 L582.2846948661091,544.74859681167 M582.2846948661091,544.74859681167 L589.5589188958259,538.9755569616708 M589.5589188958259,538.9755569616708 L597.7713098109889,533.6551128407868 M597.7713098109889,533.6551128407868 L606.8425588536286,528.8371967464388 M606.8425588536286,528.8371967464388 L616.6854978380841,524.5668877052465 M616.6854978380841,524.5668877052465 L627.2060105858475,520.8840723691475 M627.2060105858475,520.8840723691475 L638.3037743524942,517.8230315764133 M638.3037743524942,517.8230315764133 L649.8733818177973,515.4122653509569 M649.8733818177973,515.4122653509569 L661.8051012019968,513.6741346335447 M661.8051012019968,513.6741346335447 L673.9860059228992,512.624766546525 M673.9860059228992,512.624766546525 L686.3009512162665,512.2738929850518 M686.3009512162665,512.2738929850518 L698.6335655182279,512.6247640895758 M698.6335655182279,512.6247640895758 L710.8673389938575,513.6741297187473 M710.8673389938575,513.6741297187473 L722.8865984627131,515.4122555183837 M722.8865984627131,515.4122555183837 L734.577633336383,517.8230401835299 M734.577633336383,517.8230401835299 L745.8295859663061,520.8840649876834 M745.8295859663061,520.8840649876834 L756.535589948861,524.5668938604133 M756.535589948861,524.5668938604133 L766.593629896097,528.8371976704007 M766.593629896097,528.8371976704007 L775.907553157548,533.6551128407868 M600.0465471796375,586.9181393423848 L591.5601197823411,581.5173849686341 M591.5601197823411,581.5173849686341 L584.0217718256157,575.668551591464 M584.0217718256157,575.668551591464 L577.5034347859989,569.4292420927816 M577.5034347859989,569.4292420927816 L572.0668366121646,562.8607294453979 M572.0668366121646,562.8607294453979 L567.7628245682816,556.0272804209517 M567.7628245682816,556.0272804209517 L564.6311280753264,548.9955622600592 M564.6311280753264,548.9955622600592 L562.6998432431259,541.8338897649019 M562.6998432431259,541.8338897649019 L561.9853857501845,534.6116185531287 M561.9853857501845,534.6116185531287 L562.4923511949726,527.3984090246065 M562.4923511949726,527.3984090246065 L564.2135774723027,520.2635881890549 M564.2135774723027,520.2635881890549 L567.1302869238825,513.2754578134229 M567.1302869238825,513.2754578134229 L571.2123633889103,506.5006738685525 M571.2123633889103,506.5006738685525 L576.4187699046169,500.00365033363227 M576.4187699046169,500.00365033363227 L582.6978545194781,493.8458924062125 M582.6978545194781,493.8458924062125 L589.9881154084931,488.08555955779497 M589.9881154084931,488.08555955779497 L598.2186385297578,482.77683766989946 M598.2186385297578,482.77683766989946 L607.3099394634812,477.9695460820562 M607.3099394634812,477.9695460820562 L617.1746577769576,473.7086614802369 M617.1746577769576,473.7086614802369 L627.7184704529487,470.03397967874406 M627.7184704529487,470.03397967874406 L638.840834881546,466.97970322538845 M638.840834881546,466.97970322538845 L650.436113231137,464.57426690774156 M650.436113231137,464.57426690774156 L662.3943340917497,462.8399803810581 M662.3943340917497,462.8399803810581 L674.6023244624528,461.79293372832996 M674.6023244624528,461.79293372832996 L686.9446883322023,461.44283647197693 M686.9446883322023,461.44283647197693 L699.3048000413681,461.79293127681655 M699.3048000413681,461.79293127681655 L711.5658950000787,462.8399754771323 M711.5658950000787,462.8399754771323 L723.612046551663,464.5742570969116 M723.612046551663,464.5742570969116 L735.329294198865,466.9797118134798 M735.329294198865,466.9797118134798 L746.6065357275654,470.0339723135873 M746.6065357275654,470.0339723135873 L757.3366678811483,473.7086676218145 M757.3366678811483,473.7086676218145 L767.4174478999662,477.9695470039796 M767.4174478999662,477.9695470039796 L776.7525074041114,482.77683766989946 M775.907553157548,533.6551128407868 L861.1493318804005,483.1968731346399 M776.7525074041114,482.77683766989946 L862.1800032130366,432.43031511423237 M563.7408369624887,387.81862682123386 L566.1401983470544,387.9854642463189 M566.1401983470544,387.9854642463189 L568.4052205668794,388.4763181175371 M568.4052205668794,388.4763181175371 L570.4044188140921,389.2627374420137 M570.4044188140921,389.2627374420137 L572.0216754471213,390.2991258483769 M572.0216754471213,390.2991258483769 L573.1629753965688,391.52537444721605 M573.1629753965688,391.52537444721605 L573.7618871868708,392.87031373666827 M573.7618871868708,392.87031373666827 L573.7834140885805,394.25583778391916 M573.7834140885805,394.25583778391916 L573.226101739999,395.6014266130313 M573.226101739999,395.6014266130313 L572.1221450494901,396.8288212001218 M572.1221450494901,396.8288212001218 L570.5355900280332,397.86659193195965 M570.5355900280332,397.86659193195965 L568.5586175702053,398.65431325128526 M568.5586175702053,398.65431325128526 L566.3061800457258,399.1460880857709 M566.3061800457258,399.1460880857709 L563.9093540340567,399.3132611726563 M563.5411373879881,450.00579444749485 L563.9093540340567,399.3132611726563 M563.3733642965382,438.4853667356971 L565.7674206703113,438.6525789039336 M565.7674206703113,438.6525789039336 L568.0274236889667,439.14453524733386 M568.0274236889667,439.14453524733386 L570.0221795636506,439.9327206967196 M570.0221795636506,439.9327206967196 L571.6358285064264,440.97143623507736 M571.6358285064264,440.97143623507736 L572.7745652178445,442.200437741416 M572.7745652178445,442.200437741416 L573.372107669469,443.54839572239933 M573.372107669469,443.54839572239933 L573.3935395340275,444.93702881494636 M573.3935395340275,444.93702881494636 L572.8374128798546,446.2856363598847 M572.8374128798546,446.2856363598847 L571.7358545453823,447.51578388787306 M571.7358545453823,447.51578388787306 L570.1527716723941,448.55588179199094 M570.1527716723941,448.55588179199094 L568.180143483061,449.34536927416934 M568.180143483061,449.34536927416934 L565.9326695913768,449.83824660231096 M565.9326695913768,449.83824660231096 L563.5411373879881,450.00579444749485 M452.5549843660775,514.5195150417285 L452.6779639726722,463.6834909311911 M563.5411373879881,450.00579444749485 L452.5549843660775,514.5195150417285 M563.9093540340567,399.3132611726563 L452.6779639726722,463.6834909311911 M452.6779639726722,463.6834909311911 L452.3916906107441,465.07612271467616 M452.3916906107441,465.07612271467616 L451.53589223291505,466.38813581282653 M451.53589223291505,466.38813581282653 L450.1601399902835,467.5431895534845 M450.1601399902835,467.5431895534845 L448.3443232797035,468.47405108069853 M448.3443232797035,468.47405108069853 L446.19398823131723,469.12649993057846 M446.19398823131723,469.12649993057846 L443.83422338293514,469.4625138225702 M443.83422338293514,469.4625138225702 L441.4023610637021,469.4625138225702 M441.4023610637021,469.4625138225702 L439.0399399029581,469.12649747591604 M439.0399399029581,469.12649747591604 L436.88443878775865,468.4740535350807 M436.88443878775865,468.4740535350807 L435.06125152340917,467.543192007467 M435.06125152340917,467.543192007467 L433.6763535595377,466.38813335934015 M433.6763535595377,466.38813335934015 L432.81016243134934,465.07612271467616 M432.81016243134934,465.07612271467616 L432.51286648075927,463.6834933835162 M452.5549843660775,514.5195150417285 L452.2693326415108,515.9152333442394 M452.2693326415108,515.9152333442394 L451.41542353009476,517.2301535923458 M451.41542353009476,517.2301535923458 L450.0427191031809,518.3877661376025 M450.0427191031809,518.3877661376025 L448.2309319407576,519.3206894349253 M448.2309319407576,519.3206894349253 L446.08537389791735,519.9745831957003 M446.08537389791735,519.9745831957003 L443.73085536282736,520.311341158071 M443.73085536282736,520.311341158071 L441.304402929955,520.311341158071 M441.304402929955,520.311341158071 L438.9472398970109,519.9745807356021 M438.9472398970109,519.9745807356021 L436.79653874518357,519.3206918947433 M436.79653874518357,519.3206918947433 L434.97741378122095,518.3877685970206 M434.97741378122095,518.3877685970206 L433.59560426984063,517.2301511334236 M433.59560426984063,517.2301511334236 L432.7313485713082,515.9152333442394 M432.7313485713082,515.9152333442394 L432.4347232326366,514.5195174994894 M610.626709868412,341.6913738476881 L502.82312741130954,403.9095322329596 M371.88164318674905,479.4815848400989 L261.42600397223384,543.2303610732985 M610.7022163874676,333.55313533912897 L502.86067053561555,395.74862646948276 M596.543322850221,325.5613978370468 L488.70058974549,387.6686565073801 M488.66810908385304,395.82663121968955 L596.4728775310307,333.69670615804085 M577.4851686856541,322.9716658447086 L469.6789823505326,384.9833226373086 M577.5488354217706,314.84029472856946 L469.7046829206803,376.8292863920346 M563.4368075256298,306.8750097102635 L455.59172907189475,368.7762078210248 M455.57105739821185,376.92731322395025 L563.3781687028232,315.00345099856185 M544.4532332653747,304.31386769250287 L436.6450530869016,366.12004926383855 M544.5051380672568,296.189363096035 L436.6589896045579,357.9728820163391 M305.6705231960154,433.0143045247464 L195.1792775530597,496.3131618601166 M305.7032639111302,441.18867563036815 L195.25187024908615,504.51020540837 M214.17619674759496,515.5833064321296 L324.62905660928914,452.1397395495141 M324.6030508230524,443.9614294259846 L214.1103374031038,507.3823239282586 M338.7160026511615,452.12178970280434 L228.22232658929897,515.6337317545087 M338.7369795438121,460.30303121641344 L228.28315807563047,523.837645519754 M247.27137491092896,534.948130391957 L357.72631356835666,471.2908621623283 M357.71211698817797,463.1056815730345 L247.217322533032,526.7402778354135 M371.8725094020889,471.2934728420806 L261.37701363412856,535.0195774031291" stroke="black"  stroke-width="4"  fill="red"/></svg>